# Blender 4.1.1
# www.blender.org
mtllib LargePlane3.mtl
o Tb_Cube.002
v 95.999001 115.320023 97.199997
v 95.998993 -1.319996 97.200005
v 95.999001 -1.320010 -97.200005
v 95.999008 115.320007 -97.200012
v 98.728561 115.320023 97.199997
v 98.728554 -1.319996 97.200005
v 98.728561 -1.320010 -97.200005
v 98.728569 115.320007 -97.200012
vn -1.0000 -0.0000 -0.0000
vn 1.0000 -0.0000 -0.0000
vn -0.0000 -0.0000 -1.0000
vn -0.0000 -1.0000 -0.0000
vn -0.0000 1.0000 -0.0000
vn -0.0000 -0.0000 1.0000
vt 1.000000 0.000000
vt 0.000000 1.000000
vt 0.000000 0.000000
vt 1.000000 1.000000
s 0
f 1/1/1 3/2/1 2/3/1
f 1/1/1 4/4/1 3/2/1
f 5/1/2 6/3/2 7/2/2
f 5/1/2 7/2/2 8/4/2
f 3/2/3 4/4/3 8/4/3 7/2/3
f 2/3/4 3/2/4 7/2/4 6/3/4
f 4/4/5 1/1/5 5/1/5 8/4/5
f 1/1/6 2/3/6 6/3/6 5/1/6
